<svg id="Layer_1" data-name="Layer 1" xmlns="http://www.w3.org/2000/svg" viewBox="0 0 82.7 101.62"><defs><style>.cls-1{fill:#ed1c24;}</style></defs><title>footer-logo</title><path class="cls-1" d="M13.09,25.37a8,8,0,0,0,6-2.66,9,9,0,0,0,2.5-6.41,14.56,14.56,0,0,0-.13-1.79h5.8L20.5,36.94a11.14,11.14,0,0,0-.45,3.11,5.9,5.9,0,0,0,2.29,5,7.85,7.85,0,0,0,4.89,1.52,9.73,9.73,0,0,0,8-3.72l9.7-12.11-6.8,22.51H24.21a7.74,7.74,0,0,0-5.26,2,9.74,9.74,0,0,0-3,5.37H40.89a8.6,8.6,0,0,0,5.45-1.94,10.24,10.24,0,0,0,3.44-5.27L63.44,7.19H55.87A6.55,6.55,0,0,0,53,8a5.91,5.91,0,0,0-2.38,2L31.65,38.57l6.86-22.69a10.5,10.5,0,0,0,.45-3,5.93,5.93,0,0,0-1.39-4.15A4.6,4.6,0,0,0,34,7.19H13A8,8,0,0,0,7.17,9.7a9,9,0,0,0-2.65,6.6A9,9,0,0,0,7,22.71,8,8,0,0,0,13.09,25.37Z" transform="translate(-4.3 -7.19)"/><path class="cls-1" d="M33.87,102.74Q48,97,49.11,81.6q1-15.59,5.6-18a5.79,5.79,0,0,1,3.1-.95A9.8,9.8,0,0,0,60,70a7.93,7.93,0,0,0,6.28,2.92,8.06,8.06,0,0,0,5.89-2.54A9.49,9.49,0,0,0,72,56.9a9.38,9.38,0,0,0-6.41-2.35q-22.34,0-27.93,19L32.49,91.09Q29,103,23.43,103a20.76,20.76,0,0,1-6.31-1.66A20.63,20.63,0,0,0,11,99.63q-4,0-6.67,9.18H63.41q7.25,0,8.63-6.07Z" transform="translate(-4.3 -7.19)"/><path class="cls-1" d="M81.88,105.33a3,3,0,0,1-1.12.26.81.81,0,0,1-.67-.3,3.81,3.81,0,0,1-.38-2.08,33,33,0,0,1,.63-5.73,6.73,6.73,0,0,0,.1-.78c0-.09,0-.15,0-.16a22.28,22.28,0,0,1-7.52,1.31,4.78,4.78,0,0,0,.54,1.68,3.5,3.5,0,0,1,.74-.08c.84,0,1.25.48,1.25,1.46a13.14,13.14,0,0,1-.31,2.81,5.15,5.15,0,0,1-.8,2.08,3.24,3.24,0,0,1-2,.74q-.18,1-.33,1.68a35.47,35.47,0,0,1,6.06-.71,23.84,23.84,0,0,1,4.24.36c0-1-.06-1.81-.13-2.38C82.07,105.34,82,105.28,81.88,105.33Z" transform="translate(-4.3 -7.19)"/><path class="cls-1" d="M75.52,95.07a4.57,4.57,0,0,0,2.29.51,9.66,9.66,0,0,0,2.82-.41c1-.3,1.51-.67,1.51-1.11S81.76,93,81,92.56a6.32,6.32,0,0,0-3.12-.69c-2.26,0-3.39.49-3.39,1.46A1.92,1.92,0,0,0,75.52,95.07Z" transform="translate(-4.3 -7.19)"/><path class="cls-1" d="M83.44,51.6Q87,48.84,87,46a3,3,0,0,0-.94-2.3,3.34,3.34,0,0,0-2.38-.89,5.89,5.89,0,0,0-4.08,1.93,13.06,13.06,0,0,0-2.07,2.72,17.37,17.37,0,0,0,.13-2.15c0-2.72-.62-4.07-1.84-4.07a3.05,3.05,0,0,0-1.5.53,10.19,10.19,0,0,0-4.47,5.86,6.47,6.47,0,0,1,0-.95,10.37,10.37,0,0,1,1-4.7c-4.51.24-7.13.36-7.88.36h-.2c0,.76.12,1.15.36,1.18l1.19.07a.84.84,0,0,1,.74.77,30.14,30.14,0,0,0,1.49,6.81,3.48,3.48,0,0,0-1.47-.32,2.14,2.14,0,0,0-.76.11l0,2.26a3.52,3.52,0,0,1,2.23-.52,11,11,0,0,1,4.6,1,14.42,14.42,0,0,1-.9-3.52c.49-1.94,1.29-3.19,2.37-3.72a1.57,1.57,0,0,1,.64-.2c.43,0,.7.39.82,1.18,0,.23,0,.77,0,1.64a10.18,10.18,0,0,1-.94,4.68L78.48,55a7.47,7.47,0,0,1,.38-1,11.56,11.56,0,0,1-1.33-.36,6.8,6.8,0,0,1-.26-2.43,14.27,14.27,0,0,1,1.67-3.44c.85-1.25,1.64-1.87,2.39-1.87.46,0,.68.33.68,1a9.1,9.1,0,0,1-.87,3.25,10.8,10.8,0,0,1-1.52,2.72c1.51,0,2.91,0,4.2,0s2.35,0,2.86,0c-.24-.39-.43-.67-.56-.85Z" transform="translate(-4.3 -7.19)"/><path class="cls-1" d="M54.76,50.56a3.2,3.2,0,0,1-2,.74L52.38,53a35.78,35.78,0,0,1,6.07-.72,23.84,23.84,0,0,1,4.24.36c0-1-.07-1.81-.14-2.37,0-.16-.09-.21-.2-.17a2.92,2.92,0,0,1-1.12.27.79.79,0,0,1-.67-.31A3.65,3.65,0,0,1,60.18,48a33.78,33.78,0,0,1,.62-5.73,5,5,0,0,0,.1-.78c0-.09,0-.15,0-.17a22,22,0,0,1-7.51,1.32,4.84,4.84,0,0,0,.54,1.68,2.94,2.94,0,0,1,.74-.09c.83,0,1.25.49,1.25,1.46a13.19,13.19,0,0,1-.32,2.82A4.93,4.93,0,0,1,54.76,50.56Z" transform="translate(-4.3 -7.19)"/><path class="cls-1" d="M58.27,40.34a9.68,9.68,0,0,0,2.83-.41c1-.31,1.51-.68,1.51-1.11s-.38-1.07-1.15-1.5a6.28,6.28,0,0,0-3.11-.69c-2.26,0-3.4.49-3.4,1.46a1.9,1.9,0,0,0,1,1.73A4.42,4.42,0,0,0,58.27,40.34Z" transform="translate(-4.3 -7.19)"/></svg>