<svg id="Layer_1" data-name="Layer 1" xmlns="http://www.w3.org/2000/svg" viewBox="0 0 385.76 474"><defs><style>.cls-1{fill:#ed1c24;}</style></defs><title>logo</title><path class="cls-1" d="M42.78,95.78q16.53,0,28.17-12.39A42.08,42.08,0,0,0,82.6,53.48a71.25,71.25,0,0,0-.6-8.32h27.05L77.34,149.76a52,52,0,0,0-2.1,14.51q0,15.22,10.67,23.37,9.32,7.08,22.83,7.08,23.3,0,37.27-17.35l45.23-56.46-31.71,105H94.62A35.9,35.9,0,0,0,70.13,235q-10.36,9.12-14,25H172.46a40,40,0,0,0,25.39-9q11.42-9,16.08-24.6L277.64,11H242.33q-5.87,0-13.53,3.89T217.68,24.1L129.33,157.37l32-105.84a49,49,0,0,0,2.1-14q0-12.21-6.46-19.38T140.15,11H42.48Q26.85,11,15.13,22.68,2.81,35.07,2.81,53.48A42,42,0,0,0,14.53,83.39Q26.26,95.78,42.78,95.78Z" transform="translate(-1.77 -11)"/><path class="cls-1" d="M139.71,456.68q66.1-26.71,71.07-98.58,4.82-72.75,26.15-84.07,9.62-5.13,14.42-4.43-1.35,20.72,10.37,34.34T291,317.57q15.63,0,27.5-11.86Q331,293.32,331,275.09q0-20-13.67-32.21-12.48-11-29.91-11-104.13,0-130.27,88.85l-23.89,81.59Q116.87,457.75,91,457.74q-9,0-29.45-7.78t-28.7-7.79q-18.48,0-31.1,42.83H277.5q33.79,0,40.27-28.32Z" transform="translate(-1.77 -11)"/><path class="cls-1" d="M363.64,468.76a13.69,13.69,0,0,1-5.21,1.23,3.72,3.72,0,0,1-3.12-1.41c-1.19-1.51-1.78-4.74-1.78-9.67a153.56,153.56,0,0,1,2.93-26.75,26,26,0,0,0,.45-3.64c0-.42-.06-.68-.18-.77a102.85,102.85,0,0,1-35.07,6.13q0,2.37,2.52,7.86a14.55,14.55,0,0,1,3.48-.41q5.82,0,5.81,6.81A61.35,61.35,0,0,1,332,461.27q-1.51,7.08-3.73,9.69t-9.55,3.48c-.58,3-1.1,5.57-1.55,7.81q18.17-3.31,28.29-3.32a111.2,111.2,0,0,1,19.78,1.68q-.15-7.12-.64-11.08C364.51,468.81,364.19,468.55,363.64,468.76Z" transform="translate(-1.77 -11)"/><path class="cls-1" d="M334,420.89a21.07,21.07,0,0,0,10.67,2.41,44.5,44.5,0,0,0,13.18-1.91q7.05-2.13,7.05-5.17,0-4-5.36-7Q353.8,406,345,406q-15.84,0-15.84,6.81A8.87,8.87,0,0,0,334,420.89Z" transform="translate(-1.77 -11)"/><path class="cls-1" d="M370.91,218.13q16.62-12.85,16.62-26a14,14,0,0,0-4.39-10.69,15.5,15.5,0,0,0-11.08-4.16q-9.84,0-19.05,9A62.22,62.22,0,0,0,343.35,199a75.54,75.54,0,0,0,.6-10q0-19-8.56-19c-2,0-4.32.83-7,2.49a47.37,47.37,0,0,0-20.83,27.34,30.89,30.89,0,0,1-.27-4.45,48.85,48.85,0,0,1,4.85-21.93q-31.5,1.68-36.71,1.68h-1q0,5.31,1.7,5.54c1.83.12,3.68.22,5.54.32a3.93,3.93,0,0,1,3.48,3.58q3.06,22.57,6.91,31.75a16.5,16.5,0,0,0-6.82-1.5,10.32,10.32,0,0,0-3.57.54l-.19,10.54q2.85-2.44,10.4-2.45a51.39,51.39,0,0,1,21.47,4.49q-4.12-12.07-4.21-16.39,3.46-13.62,11.07-17.39a7.13,7.13,0,0,1,3-.91q3,0,3.8,5.49a74.44,74.44,0,0,1,.23,7.63q0,13.31-4.4,21.85l25,5.67a36.36,36.36,0,0,1,1.79-4.45,45.51,45.51,0,0,1-6.23-1.68q-1.19-2.31-1.19-11.35a64.69,64.69,0,0,1,7.79-16q5.9-8.73,11.12-8.72c2.14,0,3.2,1.54,3.2,4.63q0,5.49-4.07,15.12-3.75,8.87-7.1,12.72,10.57-.18,19.6-.18,9.75,0,13.32.18-1.65-2.73-2.61-4Z" transform="translate(-1.77 -11)"/><path class="cls-1" d="M237.16,213.27c-1.48,1.75-4.66,2.9-9.54,3.48q-.87,4.45-1.56,7.81,18.18-3.31,28.29-3.31a111.2,111.2,0,0,1,19.78,1.68c-.09-4.76-.31-8.45-.64-11.09-.09-.72-.41-1-1-.77a13.78,13.78,0,0,1-5.22,1.23,3.73,3.73,0,0,1-3.12-1.41c-1.19-1.51-1.78-4.74-1.78-9.67a154.64,154.64,0,0,1,2.93-26.75,26.54,26.54,0,0,0,.46-3.63c0-.43-.06-.69-.19-.78a102.83,102.83,0,0,1-35.06,6.13c0,1.58.83,4.2,2.51,7.86a14.55,14.55,0,0,1,3.48-.41q5.82,0,5.82,6.81a61.37,61.37,0,0,1-1.47,13.13Q239.38,210.66,237.16,213.27Z" transform="translate(-1.77 -11)"/><path class="cls-1" d="M253.53,165.61a44.78,44.78,0,0,0,13.18-1.9q7.05-2.15,7.05-5.18,0-4-5.35-7-5.73-3.22-14.52-3.22-15.84,0-15.84,6.81a8.91,8.91,0,0,0,4.81,8.09A21.17,21.17,0,0,0,253.53,165.61Z" transform="translate(-1.77 -11)"/></svg>